<svg width="142" height="148" xmlns="http://www.w3.org/2000/svg" xmlns:xlink="http://www.w3.org/1999/xlink" xml:space="preserve" overflow="hidden"><g transform="translate(-72 -212)"><g><g><g><g><path d="M154.496 93.3422C178.044 55.417 216.695 32.5644 240.825 42.2992 256.931 48.7977 263.083 68.6978 256.834 94.0822" stroke="#FFFFFF" stroke-width="2.71897" stroke-linecap="butt" stroke-linejoin="miter" stroke-miterlimit="8" stroke-opacity="1" fill="none" fill-rule="evenodd" transform="matrix(1 0 0 1.00022 -55.5102 174.49)"/><path d="M256.743 96.8767C257.02 96.8767 257.264 97.0359 257.482 97.3538 257.697 97.672 257.937 98.1251 258.2 98.7134L269.303 122.067C269.423 122.307 269.483 122.505 269.483 122.661 269.483 122.997 269.225 123.165 268.709 123.165L266.676 123.165C266.279 123.165 265.989 123.096 265.803 122.959 265.617 122.82 265.434 122.547 265.254 122.139L262.41 115.945C262.34 115.753 262.261 115.63 262.176 115.576 262.094 115.522 261.949 115.495 261.746 115.495L251.615 115.495C251.41 115.495 251.268 115.522 251.183 115.576 251.1 115.63 251.009 115.753 250.914 115.945L248.107 122.139C247.914 122.559 247.722 122.835 247.531 122.967 247.339 123.1 247.051 123.165 246.666 123.165L244.795 123.165C244.279 123.165 244.023 122.997 244.023 122.661 244.023 122.505 244.083 122.307 244.203 122.067L255.232 98.7134C255.519 98.0771 255.772 97.612 255.987 97.3178 256.202 97.0239 256.455 96.8767 256.743 96.8767ZM256.654 103.431 252.857 111.695C252.785 111.84 252.748 111.954 252.748 112.038 252.748 112.122 252.779 112.179 252.839 112.209 252.899 112.239 252.994 112.254 253.126 112.254L260.197 112.254C260.33 112.254 260.429 112.236 260.495 112.199 260.562 112.164 260.595 112.11 260.595 112.038 260.595 111.954 260.558 111.84 260.485 111.695L256.654 103.431Z" fill="#FFFFFF" fill-rule="evenodd" fill-opacity="1" transform="matrix(1 0 0 1.00022 -55.5102 174.49)"/><path d="M188.98 97.0837C190.375 97.0837 191.752 97.2868 193.111 97.6929 194.47 98.0988 195.728 98.684 196.883 99.4484 198.04 100.213 198.63 100.732 198.654 101.007L198.654 101.043C198.654 101.186 198.576 101.383 198.422 101.634L197.367 103.067C197.176 103.306 196.997 103.432 196.83 103.443L196.777 103.461C196.562 103.461 196.225 103.27 195.766 102.888 195.307 102.506 194.449 102.022 193.191 101.437 191.934 100.852 190.5 100.559 188.891 100.559 186.221 100.559 183.991 101.494 182.204 103.363 180.416 105.232 179.522 107.564 179.522 110.358 179.522 113.129 180.427 115.444 182.239 117.3 184.051 119.157 186.268 120.086 188.891 120.086 190.608 120.086 192.095 119.791 193.352 119.199 194.61 118.608 195.462 118.116 195.909 117.721 196.356 117.327 196.681 117.13 196.883 117.13L196.919 117.13C197.098 117.13 197.271 117.249 197.438 117.488L198.493 118.939C198.624 119.131 198.69 119.298 198.69 119.441 198.69 119.895 197.674 120.698 195.641 121.85 193.609 123.003 191.311 123.579 188.748 123.579 186.352 123.579 184.146 123.003 182.132 121.85 180.117 120.698 178.544 119.119 177.412 117.112 176.279 115.106 175.713 112.879 175.713 110.43 175.713 107.91 176.3 105.626 177.474 103.578 178.648 101.529 180.251 99.9351 182.284 98.7945 184.316 97.654 186.548 97.0837 188.98 97.0837Z" fill="#FFFFFF" fill-rule="evenodd" fill-opacity="1" transform="matrix(1 0 0 1.00022 -55.5102 174.49)"/><path d="M128.647 97.4977 130.667 97.4977C131.001 97.4977 131.266 97.5542 131.462 97.667 131.659 97.78 131.882 98.092 132.132 98.6031L140.622 116.787 149.04 98.6031C149.278 98.1396 149.492 97.8394 149.683 97.7028 149.874 97.566 150.16 97.4977 150.541 97.4977L152.4 97.4977C152.9 97.4977 153.15 97.6701 153.15 98.0148 153.15 98.1692 153.097 98.3654 152.99 98.6031L141.927 121.743 141.48 122.652C141.325 122.95 141.179 123.178 141.042 123.339 140.905 123.499 140.741 123.579 140.55 123.579 140.276 123.579 140.035 123.398 139.827 123.036 139.618 122.673 139.394 122.242 139.156 121.743L128.057 98.6031C127.95 98.3654 127.897 98.1692 127.897 98.0148 127.897 97.6701 128.147 97.4977 128.647 97.4977Z" fill="#FFFFFF" fill-rule="evenodd" fill-opacity="1" transform="matrix(1 0 0 1.00022 -55.5102 174.49)"/><path d="M157.268 97.4977 171.128 97.4977C171.438 97.4977 171.65 97.5544 171.763 97.6678 171.877 97.7811 171.933 97.993 171.933 98.3031L171.933 100.183C171.933 100.493 171.877 100.704 171.763 100.818 171.65 100.932 171.438 100.988 171.128 100.988L160.58 100.988C160.414 100.988 160.297 101.018 160.232 101.078 160.166 101.137 160.133 101.239 160.133 101.382L160.133 108.094C160.133 108.261 160.166 108.377 160.232 108.443 160.297 108.509 160.414 108.542 160.58 108.542L169.892 108.542C170.203 108.542 170.414 108.598 170.527 108.712 170.641 108.825 170.698 109.037 170.698 109.347L170.698 111.173C170.698 111.471 170.638 111.68 170.519 111.8 170.399 111.919 170.19 111.978 169.892 111.978L160.58 111.978C160.414 111.978 160.297 112.011 160.232 112.077 160.166 112.142 160.133 112.247 160.133 112.39L160.133 119.281C160.133 119.424 160.166 119.526 160.232 119.585 160.297 119.645 160.414 119.675 160.58 119.675L171.163 119.675C171.462 119.675 171.673 119.732 171.799 119.845 171.924 119.959 171.987 120.17 171.987 120.481L171.987 122.36C171.987 122.67 171.924 122.882 171.799 122.995 171.673 123.108 171.462 123.165 171.163 123.165L157.268 123.165C156.981 123.165 156.775 123.108 156.65 122.995 156.525 122.882 156.462 122.67 156.462 122.36L156.462 98.3031C156.462 97.993 156.525 97.7811 156.65 97.6678 156.775 97.5544 156.981 97.4977 157.268 97.4977Z" fill="#FFFFFF" fill-rule="evenodd" fill-opacity="1" transform="matrix(1 0 0 1.00022 -55.5102 174.49)"/><path d="M200.95 97.4977 219.407 97.4977C219.719 97.4977 219.932 97.5544 220.046 97.6678 220.16 97.7811 220.218 97.993 220.218 98.3031L220.218 100.183C220.218 100.493 220.16 100.704 220.046 100.818 219.932 100.932 219.719 100.988 219.407 100.988L212.468 100.988C212.298 100.988 212.182 101.018 212.116 101.078 212.05 101.137 212.017 101.239 212.017 101.382L212.017 122.36C212.017 122.67 211.959 122.882 211.845 122.995 211.731 123.108 211.518 123.165 211.205 123.165L209.133 123.165C208.843 123.165 208.636 123.108 208.51 122.995 208.384 122.882 208.322 122.67 208.322 122.36L208.322 101.382C208.322 101.239 208.291 101.137 208.231 101.078 208.171 101.018 208.057 100.988 207.889 100.988L200.95 100.988C200.637 100.988 200.424 100.932 200.309 100.818 200.196 100.704 200.138 100.493 200.138 100.183L200.138 98.3031C200.138 97.993 200.196 97.7811 200.309 97.6678 200.424 97.5544 200.637 97.4977 200.95 97.4977Z" fill="#FFFFFF" fill-rule="evenodd" fill-opacity="1" transform="matrix(1 0 0 1.00022 -55.5102 174.49)"/><path d="M224.749 97.4977 231.946 97.4977C235.43 97.4977 238.011 98.181 239.688 99.5472 241.365 100.914 242.203 102.862 242.203 105.391 242.203 107.134 241.781 108.61 240.932 109.822 240.086 111.032 238.837 111.925 237.192 112.498L243.528 122.074C243.72 122.348 243.816 122.575 243.816 122.754 243.816 122.885 243.749 122.986 243.619 123.058 243.487 123.129 243.284 123.165 243.008 123.165L240.808 123.165C240.39 123.165 240.073 123.097 239.858 122.96 239.645 122.822 239.411 122.563 239.16 122.181L233.843 113.965C233.712 113.762 233.582 113.625 233.449 113.553 233.319 113.482 233.133 113.446 232.894 113.446L228.061 113.446C227.893 113.446 227.778 113.479 227.711 113.545 227.645 113.61 227.614 113.726 227.614 113.894L227.614 122.36C227.614 122.67 227.556 122.882 227.442 122.995 227.33 123.108 227.117 123.165 226.807 123.165L224.749 123.165C224.461 123.165 224.257 123.108 224.13 122.995 224.006 122.882 223.944 122.67 223.944 122.36L223.944 98.3031C223.944 97.993 224.006 97.7811 224.13 97.6678 224.257 97.5544 224.461 97.4977 224.749 97.4977ZM228.061 100.988C227.893 100.988 227.778 101.018 227.711 101.078 227.645 101.137 227.614 101.239 227.614 101.382L227.614 109.67C227.614 109.836 227.645 109.953 227.711 110.019 227.778 110.084 227.893 110.117 228.061 110.117L231.982 110.117C234.118 110.117 235.72 109.747 236.788 109.007 237.856 108.267 238.39 107.11 238.39 105.534 238.39 103.995 237.844 102.853 236.753 102.107 235.66 101.361 233.994 100.988 231.75 100.988L228.061 100.988Z" fill="#FFFFFF" fill-rule="evenodd" fill-opacity="1" transform="matrix(1 0 0 1.00022 -55.5102 174.49)"/><path d="M244.126 126.616C221.98 165.736 183.592 190.551 158.386 182.04 140.413 175.973 133.381 154.099 140.423 126.167" stroke="#FFFFFF" stroke-width="2.71897" stroke-linecap="butt" stroke-linejoin="miter" stroke-miterlimit="8" stroke-opacity="1" fill="none" fill-rule="evenodd" transform="matrix(1 0 0 1.00022 -55.5102 174.49)"/><path d="M248.577 68.0006C248.577 62.6847 252.886 58.3752 258.202 58.3752 263.518 58.3752 267.827 62.6847 267.827 68.0006 267.827 73.3165 263.518 77.626 258.202 77.626 252.886 77.626 248.577 73.3165 248.577 68.0006Z" stroke="#FFFFFF" stroke-width="2.48396" stroke-linecap="butt" stroke-linejoin="miter" stroke-miterlimit="8" stroke-opacity="1" fill="#000000" fill-rule="evenodd" fill-opacity="1" transform="matrix(1 0 0 1.00022 -55.5102 174.49)"/></g></g></g></g></g></svg>